<?xml version="1.0" encoding="UTF-8" standalone="no"?>
<svg
   xmlns:dc="http://purl.org/dc/elements/1.1/"
   xmlns:cc="http://creativecommons.org/ns#"
   xmlns:rdf="http://www.w3.org/1999/02/22-rdf-syntax-ns#"
   xmlns:svg="http://www.w3.org/2000/svg"
   xmlns="http://www.w3.org/2000/svg"
   viewBox="0 0 3072 2728.8933"
   height="2728.8933"
   width="3072"
   xml:space="preserve"
   id="svg2"
   version="1.1"><metadata
     id="metadata8"><rdf:RDF><cc:Work
         rdf:about=""><dc:format>image/svg+xml</dc:format><dc:type
           rdf:resource="http://purl.org/dc/dcmitype/StillImage" /></cc:Work></rdf:RDF></metadata><defs
     id="defs6"><clipPath
       id="clipPath52"
       clipPathUnits="userSpaceOnUse"><path
         id="path50"
         d="M 0,2046.667 H 2304 V 0 H 0 Z" /></clipPath><clipPath
       id="clipPath108"
       clipPathUnits="userSpaceOnUse"><path
         id="path106"
         d="M 0,2046.667 H 2304 V 0 H 0 Z" /></clipPath></defs><g
     transform="matrix(1.3333333,0,0,-1.3333333,0,2728.8933)"
     id="g10"><g
       transform="translate(809.8613,1680.3893)"
       id="g12"><path
         id="path14"
         style="fill:#d61f26;fill-opacity:1;fill-rule:nonzero;stroke:none"
         d="M 0,0 H 336.077 V 212.277" /></g><g
       transform="translate(1143.313,1892.6666)"
       id="g16"><path
         id="path18"
         style="fill:#d61f26;fill-opacity:1;fill-rule:nonzero;stroke:none"
         d="M 0,0 V -212.277 H 336.077" /></g><g
       transform="translate(251.9204,1090.067)"
       id="g20"><path
         id="path22"
         style="fill:#d61f26;fill-opacity:1;fill-rule:nonzero;stroke:none"
         d="M 0,0 H 1788.036 V -770.4 H 0" /></g><path
       id="path24"
       style="fill:#d61f26;fill-opacity:1;fill-rule:nonzero;stroke:none"
       d="M 1378.305,1514.622 H 905.696 v -429.325 h 472.609 z" /><g
       transform="translate(55,1085.2965)"
       id="g26"><path
         id="path28"
         style="fill:#d61f26;fill-opacity:1;fill-rule:nonzero;stroke:none"
         d="M 0,0 H 850.696 V 429.325" /></g><g
       transform="translate(2229,1085.2965)"
       id="g30"><path
         id="path32"
         style="fill:#d61f26;fill-opacity:1;fill-rule:nonzero;stroke:none"
         d="M 0,0 H -850.695 V 429.325" /></g><path
       id="path34"
       style="fill:#d61f26;fill-opacity:1;fill-rule:nonzero;stroke:none"
       d="M 1007.838,1513.429 H 905.695 v 166.96 h 102.143 z" /><path
       id="path36"
       style="fill:#d61f26;fill-opacity:1;fill-rule:nonzero;stroke:none"
       d="m 1378.305,1513.429 h -102.143 v 166.96 h 102.143 z" /><g
       transform="translate(251.9208,319.6665)"
       id="g38"><path
         id="path40"
         style="fill:#d61f26;fill-opacity:1;fill-rule:nonzero;stroke:none"
         d="M 0,0 H 1788.035 Z" /></g><text
       id="text44"
       style="font-variant:normal;font-weight:normal;font-stretch:normal;font-size:347px;font-family:Impact;-inkscape-font-specification:Impact;writing-mode:lr-tb;fill:#ffffff;fill-opacity:1;fill-rule:nonzero;stroke:none"
       transform="matrix(0.90720375,0,0,-1,277,614.2344)"><tspan
         id="tspan42"
         y="0"
         x="0 179.399 351.164 532.992 710.30902 887.62598 982.70398 1265.162 1442.479 1566.705 1732.571">SchoolWorks</tspan></text>
<g
       id="g46"><g
         clip-path="url(#clipPath52)"
         id="g48"><g
           transform="translate(427.0215,816.3687)"
           id="g54"><path
             id="path56"
             style="fill:none;stroke:#231f20;stroke-width:4;stroke-linecap:butt;stroke-linejoin:miter;stroke-miterlimit:10;stroke-dasharray:none;stroke-opacity:1"
             d="m 0,0 c 0,21.799 -1.921,37.246 -5.764,46.34 -3.842,9.091 -11.682,16.631 -23.518,22.619 -11.835,5.986 -26.157,8.98 -42.962,8.98 -15.371,0 -28.489,-2.74 -39.35,-8.217 -10.863,-5.48 -18.728,-13.076 -23.594,-22.789 -4.869,-9.716 -7.302,-25.076 -7.302,-46.086 0,-14.571 1.715,-26.545 5.15,-35.92 3.432,-9.377 7.762,-16.718 12.988,-22.026 5.227,-5.311 15.883,-13.838 31.972,-25.585 16.087,-11.635 26.181,-19.937 30.281,-24.906 3.996,-4.972 5.995,-15.533 5.995,-31.684 0,-7.344 -1.052,-12.877 -3.151,-16.605 -2.102,-3.727 -5.303,-5.591 -9.607,-5.591 -4.304,0 -7.302,1.467 -8.992,4.405 -1.691,2.936 -2.537,9.544 -2.537,19.824 v 33.378 h -60.1 v -17.96 c 0,-20.559 1.894,-36.428 5.687,-47.611 3.79,-11.182 11.809,-20.39 24.055,-27.617 12.245,-7.228 27.027,-10.844 44.346,-10.844 15.779,0 29.613,3.134 41.502,9.404 11.886,6.268 19.906,14.033 24.056,23.297 4.15,9.26 6.225,23.662 6.225,43.205 0,26.882 -3.742,46.367 -11.221,58.455 -7.481,12.085 -25.624,27.551 -54.43,46.398 -10.047,6.545 -16.142,12.136 -18.287,16.771 -2.248,4.634 -3.37,11.53 -3.37,20.684 0,7.122 0.999,12.433 2.998,15.938 1.998,3.505 4.943,5.258 8.838,5.258 3.586,0 6.149,-1.3 7.686,-3.897 1.537,-2.6 2.305,-8.641 2.305,-18.13 V -10.844 H 0 Z" /></g><g
           transform="translate(582.4233,803.1528)"
           id="g58"><path
             id="path60"
             style="fill:none;stroke:#231f20;stroke-width:4;stroke-linecap:butt;stroke-linejoin:miter;stroke-miterlimit:10;stroke-dasharray:none;stroke-opacity:1"
             d="m 0,0 c -3.792,11.521 -11.427,21.065 -22.903,28.634 -11.478,7.567 -25.312,11.352 -41.502,11.352 -16.293,0 -30.127,-3.812 -41.502,-11.436 -11.374,-7.625 -18.805,-16.295 -22.288,-26.008 -3.485,-9.716 -5.226,-24.118 -5.226,-43.206 v -63.877 c 0,-21.915 2.126,-38.829 6.379,-50.745 4.251,-11.919 11.502,-21.179 21.75,-27.787 10.246,-6.608 24.133,-9.912 41.656,-9.912 13.73,0 25.259,2.402 34.585,7.201 9.323,4.8 16.882,11.916 22.672,21.348 5.788,9.431 9.223,18.638 10.298,27.619 1.077,8.979 1.665,22.449 1.768,40.409 h -55.335 v -26.77 c 0,-11.635 -0.745,-19.543 -2.229,-23.721 -1.487,-4.18 -4.331,-6.269 -8.531,-6.269 -3.589,0 -6.302,2.004 -8.147,6.015 -1.844,4.008 -2.767,10.023 -2.767,18.045 v 106.065 c 0,9.827 0.615,16.152 1.845,18.977 1.229,2.822 3.636,4.235 7.224,4.235 3.586,0 6.045,-1.609 7.378,-4.828 1.331,-3.22 1.999,-9.348 1.999,-18.384 V -48.966 H 5.687 C 5.687,-27.845 3.79,-11.521 0,0 Z" /></g><g
           transform="translate(606.5562,888.5474)"
           id="g62"><path
             id="path64"
             style="fill:none;stroke:#231f20;stroke-width:4;stroke-linecap:butt;stroke-linejoin:miter;stroke-miterlimit:10;stroke-dasharray:none;stroke-opacity:1"
             d="m 0,0 v -274.313 h 62.099 v 160.454 c 0,11.407 0.665,19.032 1.998,22.873 1.331,3.839 3.893,5.761 7.686,5.761 4.097,0 6.737,-1.864 7.916,-5.591 1.176,-3.728 1.767,-12.144 1.767,-25.246 v -158.251 h 62.099 v 155.032 c 0,21.121 -0.845,35.666 -2.536,43.629 -1.691,7.964 -6.355,14.995 -13.987,21.094 -7.635,6.1 -16.884,9.15 -27.745,9.15 -7.071,0 -13.707,-1.361 -19.905,-4.077 -6.202,-2.719 -11.966,-6.796 -17.293,-12.231 l 0,61.716 z" /></g><g
           transform="translate(908.9819,795.6978)"
           id="g66"><path
             id="path68"
             style="fill:none;stroke:#231f20;stroke-width:4;stroke-linecap:butt;stroke-linejoin:miter;stroke-miterlimit:10;stroke-dasharray:none;stroke-opacity:1"
             d="m 0,0 c -1.999,7.794 -5.714,15.36 -11.144,22.704 -5.433,7.341 -13.142,13.301 -23.133,17.875 -9.992,4.575 -21.957,6.862 -35.892,6.862 -16.601,0 -30.23,-3.558 -40.887,-10.674 -10.659,-7.116 -18.037,-16.549 -22.134,-28.295 -4.1,-11.749 -6.149,-28.071 -6.149,-48.967 v -57.607 c 0,-19.09 1.127,-33.408 3.382,-42.952 2.252,-9.546 6.019,-17.679 11.297,-24.398 5.277,-6.722 12.681,-11.749 22.212,-15.079 9.53,-3.331 21.159,-4.999 34.892,-4.999 12.297,0 23.184,1.949 32.663,5.845 9.478,3.898 17.24,9.939 23.288,18.13 6.045,8.188 9.991,16.999 11.835,26.432 1.845,9.43 2.768,24.255 2.768,44.476 v 55.066 C 2.998,-19.654 1.998,-7.794 0,0 Z m -59.102,-122.331 c 0,-9.716 -0.591,-16.041 -1.768,-18.977 -1.179,-2.938 -3.612,-4.405 -7.301,-4.405 -3.588,0 -5.995,1.609 -7.224,4.829 -1.23,3.219 -1.845,10.137 -1.845,20.756 v 101.49 c 0,11.522 0.615,18.778 1.845,21.773 1.229,2.991 3.689,4.49 7.378,4.49 3.689,0 6.096,-1.499 7.225,-4.49 1.126,-2.995 1.69,-10.251 1.69,-21.773 z" /></g><g
           transform="translate(1069.917,795.6978)"
           id="g70"><path
             id="path72"
             style="fill:none;stroke:#231f20;stroke-width:4;stroke-linecap:butt;stroke-linejoin:miter;stroke-miterlimit:10;stroke-dasharray:none;stroke-opacity:1"
             d="m 0,0 c -1.998,7.794 -5.714,15.36 -11.144,22.704 -5.433,7.341 -13.142,13.301 -23.133,17.875 -9.992,4.575 -21.957,6.862 -35.892,6.862 -16.601,0 -30.23,-3.558 -40.887,-10.674 -10.659,-7.116 -18.037,-16.549 -22.134,-28.295 -4.1,-11.749 -6.149,-28.071 -6.149,-48.967 v -57.607 c 0,-19.09 1.127,-33.408 3.382,-42.952 2.252,-9.546 6.019,-17.679 11.297,-24.398 5.277,-6.722 12.681,-11.749 22.212,-15.079 9.53,-3.331 21.159,-4.999 34.892,-4.999 12.297,0 23.184,1.949 32.663,5.845 9.478,3.898 17.24,9.939 23.288,18.13 6.045,8.188 9.991,16.999 11.835,26.432 1.845,9.43 2.767,24.255 2.767,44.476 v 55.066 C 2.997,-19.654 1.998,-7.794 0,0 Z m -59.102,-122.331 c 0,-9.716 -0.591,-16.041 -1.768,-18.977 -1.179,-2.938 -3.612,-4.405 -7.301,-4.405 -3.588,0 -5.995,1.609 -7.224,4.829 -1.23,3.219 -1.845,10.137 -1.845,20.756 v 101.49 c 0,11.522 0.615,18.778 1.845,21.773 1.229,2.991 3.689,4.49 7.378,4.49 3.689,0 6.096,-1.499 7.225,-4.49 1.126,-2.995 1.69,-10.251 1.69,-21.773 z" /></g><path
           id="path74"
           style="fill:none;stroke:#231f20;stroke-width:4;stroke-linecap:butt;stroke-linejoin:miter;stroke-miterlimit:10;stroke-dasharray:none;stroke-opacity:1"
           d="m 1093.358,614.234 h 63.943 v 274.313 h -63.943 z" /><g
           transform="translate(1362.1982,888.5474)"
           id="g76"><path
             id="path78"
             style="fill:none;stroke:#231f20;stroke-width:4;stroke-linecap:butt;stroke-linejoin:miter;stroke-miterlimit:10;stroke-dasharray:none;stroke-opacity:1"
             d="m 0,0 c -8.36,-63.498 -14.382,-128.447 -18.062,-194.849 l -7.147,104.371 C -29.022,-38.181 -31.374,-8.021 -32.268,0 h -67.198 c -9.542,-77.611 -15.505,-140.357 -17.892,-188.241 l -6.613,92.53 L -130.808,0 h -62.868 l 28.967,-274.313 h 80.334 c 9.45,72.851 15.467,120.801 18.049,143.849 5.661,-53.755 12.188,-101.705 19.586,-143.849 H 34.054 L 62.867,0 Z" /></g><g
           transform="translate(1573.4736,795.6978)"
           id="g80"><path
             id="path82"
             style="fill:none;stroke:#231f20;stroke-width:4;stroke-linecap:butt;stroke-linejoin:miter;stroke-miterlimit:10;stroke-dasharray:none;stroke-opacity:1"
             d="m 0,0 c -1.998,7.794 -5.714,15.36 -11.145,22.704 -5.432,7.341 -13.141,13.301 -23.132,17.875 -9.992,4.575 -21.957,6.862 -35.892,6.862 -16.601,0 -30.23,-3.558 -40.887,-10.674 -10.659,-7.116 -18.037,-16.549 -22.134,-28.295 -4.1,-11.749 -6.149,-28.071 -6.149,-48.967 v -57.607 c 0,-19.09 1.126,-33.408 3.382,-42.952 2.253,-9.546 6.019,-17.679 11.298,-24.398 5.276,-6.722 12.68,-11.749 22.211,-15.079 9.53,-3.331 21.159,-4.999 34.892,-4.999 12.297,0 23.184,1.949 32.663,5.845 9.478,3.898 17.241,9.939 23.288,18.13 6.045,8.188 9.991,16.999 11.835,26.432 1.845,9.43 2.767,24.255 2.767,44.476 v 55.066 C 2.997,-19.654 1.998,-7.794 0,0 Z m -59.102,-122.331 c 0,-9.716 -0.59,-16.041 -1.767,-18.977 -1.18,-2.938 -3.612,-4.405 -7.302,-4.405 -3.588,0 -5.994,1.609 -7.225,4.829 -1.229,3.219 -1.843,10.137 -1.843,20.756 v 101.49 c 0,11.522 0.614,18.778 1.843,21.773 1.231,2.991 3.69,4.49 7.379,4.49 3.689,0 6.095,-1.499 7.224,-4.49 1.127,-2.995 1.691,-10.251 1.691,-21.773 z" /></g><g
           transform="translate(1596.915,839.0728)"
           id="g84"><path
             id="path86"
             style="fill:none;stroke:#231f20;stroke-width:4;stroke-linecap:butt;stroke-linejoin:miter;stroke-miterlimit:10;stroke-dasharray:none;stroke-opacity:1"
             d="m 0,0 v -224.838 h 62.099 v 88.783 c 0,21.799 0.615,35.721 1.844,41.765 1.23,6.041 4.508,10.759 9.838,14.148 5.327,3.389 13.68,5.083 25.055,5.083 V 4.066 C 81.721,2.819 68.655,-8.392 59.64,-29.566 L 62.099,0 Z" /></g><g
           transform="translate(1791.1279,839.0728)"
           id="g88"><path
             id="path90"
             style="fill:none;stroke:#231f20;stroke-width:4;stroke-linecap:butt;stroke-linejoin:miter;stroke-miterlimit:10;stroke-dasharray:none;stroke-opacity:1"
             d="m 0,0 -19.367,-65.679 -0.077,115.154 h -62.099 v -274.313 h 62.099 l 0.077,97.993 L 0,-224.838 H 59.717 L 26.977,-89.546 52.186,0 Z" /></g><g
           transform="translate(1986.8789,780.2793)"
           id="g92"><path
             id="path94"
             style="fill:none;stroke:#231f20;stroke-width:4;stroke-linecap:butt;stroke-linejoin:miter;stroke-miterlimit:10;stroke-dasharray:none;stroke-opacity:1"
             d="m 0,0 c 0,11.294 -0.538,19.596 -1.614,24.907 -1.076,5.308 -4.151,11.069 -9.223,17.282 -5.072,6.211 -12.35,11.209 -21.827,14.995 -9.48,3.783 -20.982,5.676 -34.508,5.676 -13.63,0 -25.593,-2.317 -35.891,-6.947 -10.299,-4.633 -17.6,-11.212 -21.904,-19.739 -4.304,-8.53 -6.456,-21.772 -6.456,-39.732 0,-12.652 1.998,-23.581 5.994,-32.785 3.997,-9.208 15.115,-19.459 33.356,-30.753 21.723,-13.329 33.763,-21.348 36.122,-24.059 2.253,-2.711 3.382,-9.433 3.382,-20.163 0,-7.794 -0.872,-12.906 -2.614,-15.334 -1.743,-2.43 -4.817,-3.642 -9.222,-3.642 -4.1,0 -6.84,1.805 -8.224,5.421 -1.383,3.614 -2.075,11.464 -2.075,23.552 v 14.232 h -55.028 v -10.844 c 0,-18.751 2.099,-32.758 6.302,-42.019 4.201,-9.263 11.912,-16.605 23.133,-22.027 11.221,-5.421 24.722,-8.132 40.503,-8.132 14.242,0 26.412,2.515 36.507,7.539 10.092,5.025 17.292,12.199 21.596,21.519 4.303,9.318 6.456,23.127 6.456,41.426 0,16.377 -2.82,28.859 -8.454,37.445 -5.637,8.583 -17.473,17.732 -35.507,27.448 -13.527,7.341 -22.469,12.933 -26.824,16.774 -4.356,3.839 -6.969,7.371 -7.838,10.589 -0.872,3.22 -1.307,8.274 -1.307,15.165 0,5.083 0.869,8.895 2.613,11.437 1.741,2.541 4.355,3.812 7.839,3.812 4.305,0 6.994,-1.385 8.07,-4.151 1.077,-2.769 1.615,-9.348 1.615,-19.739 V -13.046 H 0 Z" /></g></g></g><text
       id="text98"
       style="font-variant:normal;font-weight:normal;font-stretch:normal;font-size:100px;font-family:Impact;-inkscape-font-specification:Impact;writing-mode:lr-tb;fill:#ffffff;fill-opacity:1;fill-rule:nonzero;stroke:none"
       transform="matrix(0.907204,0,0,-1,1465.3516,486.2344)"><tspan
         id="tspan96"
         y="0"
         x="0 28.799999 81.099998 130.60001 181.7 217.5 269.39999 320.5 356.29999 406.70001 437.20001 488.29999">Incorporated</tspan></text>
<path
       id="path100"
       style="fill:none;stroke:#231f20;stroke-width:2;stroke-linecap:butt;stroke-linejoin:miter;stroke-miterlimit:10;stroke-dasharray:none;stroke-opacity:1"
       d="m 1469.073,486.234 h 18.649 v 79.053 h -18.649 z" /><g
       id="g102"><g
         clip-path="url(#clipPath108)"
         id="g104"><g
           transform="translate(1494.6763,551.0293)"
           id="g110"><path
             id="path112"
             style="fill:none;stroke:#231f20;stroke-width:2;stroke-linecap:butt;stroke-linejoin:miter;stroke-miterlimit:10;stroke-dasharray:none;stroke-opacity:1"
             d="m 0,0 v -64.795 h 17.896 v 43.799 c 0,4.883 0.162,7.886 0.487,9.009 0.325,1.123 1.122,1.684 2.392,1.684 1.211,0 1.949,-0.488 2.215,-1.465 0.266,-0.976 0.399,-3.694 0.399,-8.154 v -44.873 h 17.896 v 45.41 c 0,5.664 -0.281,9.709 -0.842,12.134 -0.561,2.425 -1.816,4.435 -3.765,6.03 -1.949,1.595 -4.46,2.393 -7.531,2.393 -2.451,0 -4.614,-0.595 -6.489,-1.785 -1.876,-1.191 -3.463,-2.976 -4.762,-5.356 L 18.206,0 Z" /></g><g
           transform="translate(1580.0361,540.6777)"
           id="g114"><path
             id="path116"
             style="fill:none;stroke:#231f20;stroke-width:2;stroke-linecap:butt;stroke-linejoin:miter;stroke-miterlimit:10;stroke-dasharray:none;stroke-opacity:1"
             d="m 0,0 c -1.093,3.32 -3.293,6.071 -6.6,8.252 -3.308,2.181 -7.295,3.271 -11.96,3.271 -4.696,0 -8.683,-1.098 -11.961,-3.295 -3.277,-2.198 -5.419,-4.696 -6.422,-7.496 -1.005,-2.799 -1.507,-6.95 -1.507,-12.451 v -18.408 c 0,-6.315 0.613,-11.19 1.839,-14.624 1.225,-3.435 3.315,-6.103 6.268,-8.008 2.952,-1.904 6.954,-2.856 12.004,-2.856 3.957,0 7.279,0.692 9.967,2.075 2.687,1.383 4.865,3.434 6.534,6.152 1.668,2.718 2.658,5.371 2.968,7.959 0.31,2.588 0.479,6.47 0.509,11.646 h -15.947 v -7.715 c 0,-3.353 -0.214,-5.632 -0.642,-6.836 -0.428,-1.205 -1.248,-1.807 -2.459,-1.807 -1.033,0 -1.816,0.578 -2.347,1.734 -0.532,1.155 -0.798,2.888 -0.798,5.2 v 30.566 c 0,2.832 0.178,4.655 0.532,5.469 0.355,0.814 1.048,1.221 2.082,1.221 1.033,0 1.742,-0.464 2.126,-1.392 0.384,-0.928 0.576,-2.694 0.576,-5.298 v -7.47 H 1.639 C 1.639,-8.024 1.092,-3.32 0,0 Z" /></g><g
           transform="translate(1626.6147,538.5293)"
           id="g118"><path
             id="path120"
             style="fill:none;stroke:#231f20;stroke-width:2;stroke-linecap:butt;stroke-linejoin:miter;stroke-miterlimit:10;stroke-dasharray:none;stroke-opacity:1"
             d="m 0,0 c -0.576,2.246 -1.646,4.427 -3.211,6.543 -1.566,2.116 -3.788,3.833 -6.667,5.151 -2.879,1.319 -6.328,1.978 -10.344,1.978 -4.783,0 -8.712,-1.026 -11.782,-3.076 -3.072,-2.051 -5.199,-4.769 -6.379,-8.155 -1.182,-3.385 -1.772,-8.089 -1.772,-14.111 v -16.601 c 0,-5.502 0.324,-9.628 0.974,-12.378 0.65,-2.751 1.735,-5.095 3.256,-7.032 1.521,-1.937 3.654,-3.385 6.401,-4.345 2.747,-0.96 6.098,-1.441 10.056,-1.441 3.543,0 6.681,0.562 9.413,1.685 2.731,1.123 4.968,2.864 6.711,5.224 1.742,2.36 2.879,4.899 3.41,7.618 0.532,2.717 0.798,6.99 0.798,12.817 v 15.869 C 0.864,-5.664 0.576,-2.246 0,0 Z m -17.032,-35.254 c 0,-2.8 -0.17,-4.622 -0.51,-5.469 -0.339,-0.846 -1.041,-1.269 -2.104,-1.269 -1.034,0 -1.727,0.464 -2.082,1.391 -0.354,0.928 -0.531,2.922 -0.531,5.982 v 29.248 c 0,3.32 0.177,5.412 0.531,6.274 0.355,0.863 1.063,1.294 2.126,1.294 1.064,0 1.757,-0.431 2.082,-1.294 0.325,-0.862 0.488,-2.954 0.488,-6.274 z" /></g><g
           transform="translate(1633.3701,551.0293)"
           id="g122"><path
             id="path124"
             style="fill:none;stroke:#231f20;stroke-width:2;stroke-linecap:butt;stroke-linejoin:miter;stroke-miterlimit:10;stroke-dasharray:none;stroke-opacity:1"
             d="m 0,0 v -64.795 h 17.896 v 25.586 c 0,6.282 0.177,10.294 0.532,12.036 0.354,1.741 1.299,3.101 2.835,4.077 1.535,0.977 3.942,1.465 7.22,1.465 V 1.172 C 23.551,0.812 19.786,-2.418 17.187,-8.521 L 17.896,0 Z" /></g><g
           transform="translate(1665.8398,551.0293)"
           id="g126"><path
             id="path128"
             style="fill:none;stroke:#231f20;stroke-width:2;stroke-linecap:butt;stroke-linejoin:miter;stroke-miterlimit:10;stroke-dasharray:none;stroke-opacity:1"
             d="m 0,0 v -74.023 h 17.896 v 14.856 c 1.565,-2.251 3.292,-3.946 5.183,-5.088 1.889,-1.141 3.942,-1.712 6.157,-1.712 2.776,0 5.145,0.741 7.11,2.222 1.963,1.481 3.262,3.467 3.898,5.957 0.634,2.49 0.952,6.681 0.952,12.573 v 27.295 c 0,5.143 -0.251,8.789 -0.753,10.938 -0.503,2.148 -1.765,4.044 -3.787,5.688 -2.023,1.644 -4.423,2.466 -7.198,2.466 -2.275,0 -4.372,-0.571 -6.291,-1.712 -1.92,-1.142 -3.676,-2.87 -5.271,-5.185 L 18.206,0 Z m 23.3,-46.631 c 0,-3.451 -0.14,-5.623 -0.421,-6.518 -0.281,-0.896 -0.996,-1.343 -2.148,-1.343 -1.182,0 -1.949,0.488 -2.303,1.465 -0.355,0.976 -0.532,3.418 -0.532,7.324 v 26.855 c 0,3.744 0.169,6.104 0.509,7.08 0.34,0.977 1.1,1.465 2.282,1.465 1.21,0 1.949,-0.423 2.214,-1.269 0.266,-0.847 0.399,-3.272 0.399,-7.276 z" /></g><g
           transform="translate(1752.5513,538.5293)"
           id="g130"><path
             id="path132"
             style="fill:none;stroke:#231f20;stroke-width:2;stroke-linecap:butt;stroke-linejoin:miter;stroke-miterlimit:10;stroke-dasharray:none;stroke-opacity:1"
             d="m 0,0 c -0.576,2.246 -1.646,4.427 -3.211,6.543 -1.566,2.116 -3.788,3.833 -6.667,5.151 -2.879,1.319 -6.328,1.978 -10.344,1.978 -4.783,0 -8.712,-1.026 -11.782,-3.076 -3.072,-2.051 -5.199,-4.769 -6.379,-8.155 -1.182,-3.385 -1.772,-8.089 -1.772,-14.111 v -16.601 c 0,-5.502 0.324,-9.628 0.974,-12.378 0.65,-2.751 1.735,-5.095 3.256,-7.032 1.521,-1.937 3.654,-3.385 6.401,-4.345 2.747,-0.96 6.098,-1.441 10.056,-1.441 3.543,0 6.681,0.562 9.413,1.685 2.731,1.123 4.968,2.864 6.711,5.224 1.742,2.36 2.879,4.899 3.41,7.618 0.532,2.717 0.798,6.99 0.798,12.817 v 15.869 C 0.864,-5.664 0.576,-2.246 0,0 Z m -17.032,-35.254 c 0,-2.8 -0.17,-4.622 -0.51,-5.469 -0.339,-0.846 -1.041,-1.269 -2.104,-1.269 -1.034,0 -1.727,0.464 -2.082,1.391 -0.354,0.928 -0.531,2.922 -0.531,5.982 v 29.248 c 0,3.32 0.177,5.412 0.531,6.274 0.355,0.863 1.063,1.294 2.126,1.294 1.064,0 1.757,-0.431 2.082,-1.294 0.325,-0.862 0.488,-2.954 0.488,-6.274 z" /></g><g
           transform="translate(1759.3066,551.0293)"
           id="g134"><path
             id="path136"
             style="fill:none;stroke:#231f20;stroke-width:2;stroke-linecap:butt;stroke-linejoin:miter;stroke-miterlimit:10;stroke-dasharray:none;stroke-opacity:1"
             d="m 0,0 v -64.795 h 17.896 v 25.586 c 0,6.282 0.177,10.294 0.532,12.036 0.354,1.741 1.299,3.101 2.835,4.077 1.535,0.977 3.942,1.465 7.22,1.465 V 1.172 C 23.551,0.812 19.786,-2.418 17.187,-8.521 L 17.896,0 Z" /></g><g
           transform="translate(1807.7676,532.7187)"
           id="g138"><path
             id="path140"
             style="fill:none;stroke:#231f20;stroke-width:2;stroke-linecap:butt;stroke-linejoin:miter;stroke-miterlimit:10;stroke-dasharray:none;stroke-opacity:1"
             d="M 0,0 C 0,3.613 0.147,5.851 0.443,6.714 0.738,7.576 1.491,8.008 2.702,8.008 3.765,8.008 4.525,7.495 4.983,6.47 5.441,5.444 5.67,3.239 5.67,-0.146 c 0,-2.703 -0.207,-4.493 -0.62,-5.372 -0.414,-0.878 -3.559,-2.587 -9.435,-5.127 -5.493,-2.343 -8.934,-4.394 -10.322,-6.152 -1.388,-1.758 -2.082,-5.062 -2.082,-9.912 v -5.322 c 0,-6.543 1.307,-10.783 3.921,-12.72 2.613,-1.937 5.485,-2.905 8.616,-2.905 2.392,0 4.451,0.579 6.179,1.736 1.727,1.158 3.137,2.894 4.23,5.21 v -5.774 h 17.409 v 32.519 c 0,10.71 -0.31,17.781 -0.93,21.216 -0.62,3.434 -2.467,6.331 -5.537,8.691 -3.072,2.36 -7.635,3.54 -13.688,3.54 -5.05,0 -9.155,-1.042 -12.315,-3.125 -3.16,-2.083 -5.264,-4.484 -6.312,-7.202 -1.049,-2.718 -1.573,-6.584 -1.573,-11.596 v -4.346 l 16.789,0 z m 5.67,-29.004 c 0,-3.255 -0.17,-5.266 -0.509,-6.03 -0.34,-0.765 -1.071,-1.148 -2.193,-1.148 -1.182,0 -1.971,0.489 -2.37,1.465 C 0.199,-33.74 0,-31.576 0,-28.223 c 0,2.93 0.229,5.176 0.687,6.739 0.457,1.562 2.118,3.499 4.983,5.81 z" /></g><g
           transform="translate(1838.4214,559.6719)"
           id="g142"><path
             id="path144"
             style="fill:none;stroke:#231f20;stroke-width:2;stroke-linecap:butt;stroke-linejoin:miter;stroke-miterlimit:10;stroke-dasharray:none;stroke-opacity:1"
             d="M 0,0 V -10.205 H -3.854 V -20.459 H 0 v -32.91 c 0,-6.445 0.162,-10.539 0.487,-12.28 0.325,-1.742 1.152,-3.289 2.481,-4.639 1.329,-1.351 2.864,-2.214 4.607,-2.588 1.742,-0.374 4.651,-0.562 8.726,-0.562 h 7.221 v 10.45 c -2.924,0 -4.585,0.244 -4.984,0.732 -0.398,0.488 -0.598,2.864 -0.598,7.129 v 34.668 h 4.829 v 10.254 H 17.94 L 17.94,0 Z" /></g><g
           transform="translate(1905.6641,526.0781)"
           id="g146"><path
             id="path148"
             style="fill:none;stroke:#231f20;stroke-width:2;stroke-linecap:butt;stroke-linejoin:miter;stroke-miterlimit:10;stroke-dasharray:none;stroke-opacity:1"
             d="m 0,0 c 0,6.282 -0.658,11.157 -1.971,14.624 -1.315,3.467 -3.604,6.25 -6.866,8.35 -3.264,2.099 -7.406,3.149 -12.426,3.149 -4.105,0 -7.737,-0.871 -10.897,-2.612 -3.16,-1.742 -5.434,-4.248 -6.821,-7.52 -1.389,-3.271 -2.082,-7.739 -2.082,-13.403 v -18.897 c 0,-4.817 0.31,-8.488 0.93,-11.01 0.62,-2.523 1.735,-4.834 3.344,-6.934 1.609,-2.1 3.861,-3.752 6.756,-4.956 2.893,-1.204 6.23,-1.807 10.011,-1.807 3.898,0 7.139,0.611 9.723,1.831 2.584,1.221 4.717,3.052 6.401,5.494 1.683,2.441 2.753,4.736 3.211,6.884 0.458,2.149 0.687,5.225 0.687,9.229 v 4.785 h -16.966 v -8.545 c 0,-3.223 -0.229,-5.395 -0.686,-6.518 -0.458,-1.123 -1.367,-1.685 -2.724,-1.685 -1.094,0 -1.832,0.423 -2.215,1.27 -0.385,0.846 -0.576,2.734 -0.576,5.664 v 14.013 l 23.167,0 z m -23.167,1.953 v 4.736 c 0,3.646 0.147,5.884 0.442,6.714 0.295,0.83 1.064,1.245 2.304,1.245 1.004,0 1.668,-0.488 1.993,-1.464 0.325,-0.977 0.488,-3.142 0.488,-6.495 V 1.953 Z" /></g><g
           transform="translate(1934.3247,565.2871)"
           id="g150"><path
             id="path152"
             style="fill:none;stroke:#231f20;stroke-width:2;stroke-linecap:butt;stroke-linejoin:miter;stroke-miterlimit:10;stroke-dasharray:none;stroke-opacity:1"
             d="m 0,0 v -18.372 c -1.506,1.762 -3.183,3.083 -5.028,3.965 -1.846,0.88 -3.876,1.321 -6.091,1.321 -2.864,0 -5.331,-0.789 -7.397,-2.368 -2.067,-1.579 -3.389,-3.41 -3.965,-5.493 -0.576,-2.084 -0.864,-5.615 -0.864,-10.596 v -30.322 c 0,-4.785 0.288,-8.236 0.864,-10.352 0.576,-2.116 1.883,-3.979 3.92,-5.591 2.038,-1.611 4.445,-2.417 7.221,-2.417 2.067,0 4.046,0.49 5.936,1.468 1.889,0.978 3.691,2.446 5.404,4.404 v -4.7 H 17.896 V 0 Z m 0,-60.547 c 0,-3.613 -0.192,-5.884 -0.576,-6.811 -0.384,-0.928 -1.152,-1.392 -2.303,-1.392 -1.005,0 -1.683,0.415 -2.038,1.245 -0.354,0.83 -0.532,2.564 -0.532,5.2 v 31.739 c 0,2.539 0.184,4.174 0.554,4.907 0.369,0.732 1.085,1.098 2.148,1.098 1.093,0 1.824,-0.407 2.193,-1.22 C -0.185,-26.595 0,-28.19 0,-30.566 Z" /></g></g></g></g></svg>